<svg xmlns="http://www.w3.org/2000/svg" xmlns:xlink="http://www.w3.org/1999/xlink" viewBox="0 0 530 530"><defs><style>.a,.aa,.ab,.ac,.ad,.ae,.af,.ag,.ah,.ai,.aj,.ak,.al,.am,.an,.ao,.ap,.ar,.at,.b,.c,.k,.l,.m,.n,.o,.p,.q,.r,.s,.t,.u,.v,.w,.x,.y,.z{stroke-miterlimit:10;}.a{stroke-width:5px;fill:url(#a);stroke:url(#b);}.b{stroke-width:6px;fill:url(#c);stroke:url(#d);}.c{fill:#26235e;stroke:#fff;stroke-width:4px;}.d{fill:url(#e);}.e{fill:#fff;}.f{font-size:24.86px;}.f,.h,.j{fill:#231f20;}.f,.h{font-family:PTSerif-Bold, PT Serif;font-weight:700;}.g{fill:url(#f);}.h{font-size:41.94px;}.i{fill:url(#v);}.j{font-size:7px;font-family:PTSerif-Regular, PT Serif;}.aa,.ab,.ac,.ad,.ae,.af,.ag,.ah,.ai,.aj,.ak,.al,.am,.an,.ao,.ap,.k,.l,.m,.n,.o,.p,.q,.r,.s,.t,.u,.v,.w,.x,.y,.z{stroke:#231f20;}.k,.m,.o,.q,.s,.u,.w,.y{stroke-width:0.74px;}.k{fill:url(#ak);}.l,.n,.p,.r,.t,.v,.x,.z{stroke-width:0.75px;}.l{fill:url(#al);}.m{fill:url(#am);}.n{fill:url(#an);}.o{fill:url(#ao);}.p{fill:url(#ap);}.q{fill:url(#aq);}.r{fill:url(#ar);}.s{fill:url(#as);}.t{fill:url(#at);}.u{fill:url(#au);}.v{fill:url(#av);}.w{fill:url(#aw);}.x{fill:url(#ax);}.y{fill:url(#ay);}.z{fill:url(#az);}.aa,.ac,.ae,.ag{stroke-width:0.98px;}.aa{fill:url(#ba);}.ab,.ad,.af,.ah{stroke-width:0.99px;}.ab{fill:url(#bb);}.ac{fill:url(#bc);}.ad{fill:url(#bd);}.ae{fill:url(#be);}.af{fill:url(#bf);}.ag{fill:url(#bg);}.ah{fill:url(#bh);}.ai,.ak,.am,.ao{stroke-width:1.37px;}.ai{fill:url(#bi);}.aj,.al,.an,.ap{stroke-width:1.38px;}.aj{fill:url(#bj);}.ak{fill:url(#bk);}.al{fill:url(#bl);}.am{fill:url(#bm);}.an{fill:url(#bn);}.ao{fill:url(#bo);}.ap{fill:url(#bp);}.aq,.at{fill:none;}.ar,.as{fill:#fbb040;}.ar,.at{stroke:#fbb040;}</style><linearGradient id="a" x1="18.08" y1="265.83" x2="518.08" y2="265.83" gradientUnits="userSpaceOnUse"><stop offset="0.01" stop-color="#fbc926"/><stop offset="0.25" stop-color="#fffbcc"/><stop offset="0.3" stop-color="#f8f0bb"/><stop offset="0.41" stop-color="#e7d28e"/><stop offset="0.55" stop-color="#cca246"/><stop offset="0.6" stop-color="#c3922e"/><stop offset="0.87" stop-color="#eed688"/><stop offset="1" stop-color="#fffbcc"/></linearGradient><linearGradient id="b" x1="15.58" y1="265.83" x2="520.58" y2="265.83" xlink:href="#a"/><linearGradient id="c" x1="24.08" y1="265.83" x2="512.08" y2="265.83" xlink:href="#a"/><linearGradient id="d" x1="92.79" y1="439.85" x2="443.37" y2="89.27" xlink:href="#a"/><linearGradient id="e" x1="89.08" y1="265.83" x2="447.08" y2="265.83" xlink:href="#a"/><linearGradient id="f" x1="90.73" y1="434.45" x2="440.65" y2="434.45" xlink:href="#a"/><linearGradient id="v" x1="53.81" y1="119.31" x2="477.27" y2="119.31" xlink:href="#a"/><linearGradient id="ak" x1="234.21" y1="226.41" x2="272.08" y2="226.41" gradientUnits="userSpaceOnUse"><stop offset="0" stop-color="#fff33b"/><stop offset="0.04" stop-color="#fee72e"/><stop offset="0.12" stop-color="#fed51b"/><stop offset="0.2" stop-color="#fdca10"/><stop offset="0.28" stop-color="#fdc70c"/><stop offset="0.67" stop-color="#f3903f"/><stop offset="0.89" stop-color="#ed683c"/><stop offset="1" stop-color="#e93e3a"/></linearGradient><linearGradient id="al" x1="234.16" y1="226.1" x2="267.64" y2="226.1" xlink:href="#ak"/><linearGradient id="am" x1="189.63" y1="251.49" x2="267.78" y2="251.49" xlink:href="#ak"/><linearGradient id="an" x1="189.51" y1="249.03" x2="267.37" y2="249.03" xlink:href="#ak"/><linearGradient id="ao" x1="190.14" y1="279.57" x2="268.14" y2="279.57" xlink:href="#ak"/><linearGradient id="ap" x1="190.03" y1="281.86" x2="267.63" y2="281.86" xlink:href="#ak"/><linearGradient id="aq" x1="234.31" y1="304.27" x2="272.06" y2="304.27" xlink:href="#ak"/><linearGradient id="ar" x1="234.26" y1="304.53" x2="267.31" y2="304.53" xlink:href="#ak"/><linearGradient id="as" x1="263.42" y1="304.73" x2="300.66" y2="304.73" xlink:href="#ak"/><linearGradient id="at" x1="267.97" y1="305.04" x2="300.71" y2="305.04" xlink:href="#ak"/><linearGradient id="au" x1="268.2" y1="279.17" x2="346.2" y2="279.17" xlink:href="#ak"/><linearGradient id="av" x1="268.6" y1="281.61" x2="346.31" y2="281.61" xlink:href="#ak"/><linearGradient id="aw" x1="267.69" y1="251.87" x2="346.09" y2="251.87" xlink:href="#ak"/><linearGradient id="ax" x1="268.19" y1="249.5" x2="346.2" y2="249.5" xlink:href="#ak"/><linearGradient id="ay" x1="263.05" y1="225.85" x2="297.52" y2="225.85" xlink:href="#ak"/><linearGradient id="az" x1="268.38" y1="225.59" x2="297.56" y2="225.59" xlink:href="#ak"/><linearGradient id="ba" x1="268.14" y1="304.79" x2="347.13" y2="304.79" xlink:href="#ak"/><linearGradient id="bb" x1="268.49" y1="305.14" x2="347.24" y2="305.14" xlink:href="#ak"/><linearGradient id="bc" x1="188.83" y1="305.16" x2="267.82" y2="305.16" xlink:href="#ak"/><linearGradient id="bd" x1="188.72" y1="305.4" x2="267.24" y2="305.4" xlink:href="#ak"/><linearGradient id="be" x1="188.83" y1="225.85" x2="267.82" y2="225.85" xlink:href="#ak"/><linearGradient id="bf" x1="188.72" y1="225.51" x2="267.47" y2="225.51" xlink:href="#ak"/><linearGradient id="bg" x1="267.34" y1="225.38" x2="345.83" y2="225.38" xlink:href="#ak"/><linearGradient id="bh" x1="267.92" y1="225.14" x2="345.94" y2="225.14" xlink:href="#ak"/><linearGradient id="bi" x1="251.15" y1="187.59" x2="284.07" y2="187.59" xlink:href="#ak"/><linearGradient id="bj" x1="267.61" y1="187.02" x2="267.84" y2="187.02" xlink:href="#ak"/><linearGradient id="bk" x1="111.5" y1="265.5" x2="267.88" y2="265.5" xlink:href="#ak"/><linearGradient id="bl" x1="111.27" y1="265.02" x2="266.97" y2="265.02" xlink:href="#ak"/><linearGradient id="bm" x1="251.7" y1="343.24" x2="284.62" y2="343.24" xlink:href="#ak"/><linearGradient id="bn" x1="267.75" y1="343.82" x2="267.98" y2="343.82" xlink:href="#ak"/><linearGradient id="bo" x1="267.52" y1="265.47" x2="423.91" y2="265.47" xlink:href="#ak"/><linearGradient id="bp" x1="268.44" y1="265.62" x2="424.14" y2="265.62" xlink:href="#ak"/></defs><title>Artboard 2</title><circle class="a" cx="268.08" cy="265.83" r="250"/><circle class="b" cx="268.08" cy="265.83" r="244"/><circle class="c" cx="268.08" cy="265.83" r="241"/><circle class="d" cx="268.08" cy="265.83" r="179"/><circle class="e" cx="268.08" cy="265.83" r="165"/><text class="f" transform="translate(90.73 395.82) rotate(50.17) scale(1.2)">A</text><text class="f" transform="translate(108.09 416.19) rotate(43.19) scale(1.2)">N</text><text class="f" transform="matrix(0.97, 0.71, -0.71, 0.97, 128.48, 434.87)">A</text><text class="f" transform="translate(150.2 450.28) rotate(29.88) scale(1.2)">L</text><text class="f" transform="translate(166.38 459.61) rotate(24.6) scale(1.2)">Y</text><text class="f" transform="translate(189.33 469.8) rotate(18.33) scale(1.2)">Z</text><text class="f" transform="matrix(1.17, 0.25, -0.25, 1.17, 211.98, 477)">E</text><text class="f" transform="matrix(1.19, 0.16, -0.16, 1.19, 234.1, 481.42)"> </text><text class="f" transform="translate(246.57 483.1) rotate(3.37) scale(1.2)">a</text><text class="f" transform="translate(267.96 484.18) rotate(-2.41) scale(1.2)">n</text><text class="f" transform="matrix(1.19, -0.18, 0.18, 1.19, 291.97, 482.88)">d</text><text class="f" transform="translate(314.11 479.23) rotate(-12.96) scale(1.2)"> </text><text class="f" transform="translate(326.49 476.45) rotate(-17.92) scale(1.2)">R</text><text class="f" transform="translate(350.83 468.22) rotate(-24.24) scale(1.2)">E</text><text class="f" transform="matrix(1.04, -0.61, 0.61, 1.04, 371.58, 458.62)">P</text><text class="f" transform="translate(392.05 446.46) rotate(-36.88) scale(1.2)">O</text><text class="f" transform="translate(413.82 429.69) rotate(-43.72) scale(1.2)">R</text><text class="f" transform="matrix(0.78, -0.92, 0.92, 0.78, 430.91, 413.1)">T</text><path class="g" d="M95.45,401.48l-4.72-5.66.87-.73a6.73,6.73,0,0,1,1.06.46,6.88,6.88,0,0,1,1,.62l19.71-6.42,1.41,1.7-10,18.08a7.75,7.75,0,0,1,.5,1.14,5.14,5.14,0,0,1,.27,1.14l-.87.73-6-7.17.87-.73q.57.26,1.17.62a8.63,8.63,0,0,1,1.08.73l2.53-4.37-4.24-5.09-4.77,1.69a7.15,7.15,0,0,1,1,2.55Zm6.59-5.65,3.38,4.05,3.13-5.14,1.61-2.08,0,0-2.44,1.18Z"/><path class="g" d="M133,411l5.4,5.06-.8.85a7.22,7.22,0,0,1-1.45-.28,8.12,8.12,0,0,1-1.29-.5l-12.84,13.68-1.85-1.74,2.73-18.3.7-2.49-.07-.06-1.44,1.92-8.51,9.07a7.47,7.47,0,0,1,.63,1.27,8.23,8.23,0,0,1,.42,1.36l-.78.83-5.37-5,.78-.83a10.17,10.17,0,0,1,1.32.32,9,9,0,0,1,1.33.53l11.13-11.86q-.27-.58-.5-1.21a8.9,8.9,0,0,1-.36-1.19l.78-.83,4.7,4.41-2.25,14.91-.76,2.81.09.08,1.64-2,6.81-7.25a9.87,9.87,0,0,1-.61-1.37,7.68,7.68,0,0,1-.36-1.34Z"/><path class="g" d="M134.43,439.23l-5.95-4.35.67-.92a6.67,6.67,0,0,1,1.14.19,6.87,6.87,0,0,1,1.08.37l17.58-11,1.78,1.3-5.32,20a7.67,7.67,0,0,1,.76,1,5.1,5.1,0,0,1,.53,1l-.67.92-7.54-5.51.67-.92q.62.12,1.29.31a8.69,8.69,0,0,1,1.22.45l1.4-4.85-5.35-3.91-4.22,2.79a7.17,7.17,0,0,1,1.58,2.23Zm5-7.08,4.26,3.12,1.8-5.74,1.06-2.41,0,0-2.08,1.73Z"/><path class="g" d="M161.12,432.47l8.49,4.88-.57,1a7.5,7.5,0,0,1-1.48-.21,9.27,9.27,0,0,1-1.44-.46l-8.44,14.69,5,2.87,4.39-3.63,1.06.61q-.24.65-.61,1.51t-.82,1.76q-.45.91-.92,1.78t-.86,1.5l-14.2-8.16.56-1a9.25,9.25,0,0,1,1.41.16,7.19,7.19,0,0,1,1.14.31l8.41-14.64a6.45,6.45,0,0,1-1.69-2Z"/><path class="g" d="M187.37,446.24l6.65,3-.47,1a10.07,10.07,0,0,1-1.13.06,4.27,4.27,0,0,1-1.16-.15L181.77,457,179,463.17a3.94,3.94,0,0,1,.94.78,10.21,10.21,0,0,1,.76,1l-.47,1-8.36-3.83.47-1a10,10,0,0,1,1.24,0,7.09,7.09,0,0,1,1.34.22l2.79-6.1-1.24-11.76a6.74,6.74,0,0,1-1-.87,10.58,10.58,0,0,1-.81-.93l.47-1,8.9,4.07-.47,1a10.36,10.36,0,0,1-1.07,0,6.16,6.16,0,0,1-1.3-.17l.55,9,7-5.58a9,9,0,0,1-1-.9,9.51,9.51,0,0,1-.78-.88Z"/><path class="g" d="M206.52,468.86l1.19.39q-.08.63-.23,1.42t-.33,1.62q-.18.84-.4,1.64t-.45,1.49l-16-5.29.61-1.84,16.34-12.5-7-2.33-3,3.5-1.19-.39q.06-.67.21-1.5t.33-1.67q.18-.83.4-1.59t.41-1.33l15.12,5-.61,1.84-16.28,12.52,7.76,2.57Z"/><path class="g" d="M232.33,460.05q-.34,1.3-.79,2.67t-.95,2.54l-1.2-.26-.59-3.73-5.45-1.18-1.55,7.14,3.56.77,1.77-2,.93.2a32.24,32.24,0,0,1-.54,3.21q-.38,1.75-.86,3.23l-.93-.2-.78-2.58-3.56-.77-1.65,7.58,5.69,1.24,2.35-3.37,1.2.26q0,.58,0,1.3t-.12,1.48q-.09.76-.21,1.53t-.26,1.41l-15.77-3.43.24-1.11a10.36,10.36,0,0,1,1.22-.25,7.19,7.19,0,0,1,1.36-.07l3.59-16.5a10.63,10.63,0,0,1-1.17-.6,6.15,6.15,0,0,1-1-.76l.24-1.11Z"/><path class="g" d="M260.82,479.6q0,.65-.05,1.13t0,1l2,.42-.06,1a5.94,5.94,0,0,1-1,.3q-.62.14-1.3.27t-1.34.19l-1.17.1-1-.06a4.37,4.37,0,0,1-.28-1.39q0-.69,0-1.67h-.15a3.81,3.81,0,0,1-.57,1.12,4.06,4.06,0,0,1-1,.93,4.62,4.62,0,0,1-1.34.62,4.86,4.86,0,0,1-1.68.17,5.37,5.37,0,0,1-1.8-.4,4.59,4.59,0,0,1-1.41-.92,3.84,3.84,0,0,1-.91-1.35,4,4,0,0,1-.26-1.73,4.32,4.32,0,0,1,.64-2.17,3.74,3.74,0,0,1,1.68-1.32,9.52,9.52,0,0,1,2.85-.65,40.11,40.11,0,0,1,4.18-.14,9.12,9.12,0,0,0,0-3.77,1.85,1.85,0,0,0-1.87-1.3,4.7,4.7,0,0,0-1.71.2l-1.61,3.49-1.31-.08a6.91,6.91,0,0,1-.41-.85q-.2-.47-.36-1a9.83,9.83,0,0,1-.27-1.08,8.25,8.25,0,0,1-.13-1.05,9,9,0,0,1,3-1,15.59,15.59,0,0,1,3.81-.22,8.62,8.62,0,0,1,2.75.54,4.19,4.19,0,0,1,1.62,1.11,3.51,3.51,0,0,1,.76,1.55,6.94,6.94,0,0,1,.13,1.86q-.11,1.79-.26,3.23T260.82,479.6ZM254,481.5a2.25,2.25,0,0,0,1.09-.18,2.94,2.94,0,0,0,.79-.52,2.36,2.36,0,0,0,.52-.69,6.85,6.85,0,0,0,.29-.67l.17-3a16.53,16.53,0,0,0-2.3,0,3.56,3.56,0,0,0-1.43.41,1.78,1.78,0,0,0-.75.82,3.64,3.64,0,0,0-.27,1.25,2.62,2.62,0,0,0,.43,1.79A1.86,1.86,0,0,0,254,481.5Z"/><path class="g" d="M286.8,483.39l-7.9.33,0-1.13q.38-.23.74-.41t.87-.38l-.3-7a6.63,6.63,0,0,0-.66-2.92,2,2,0,0,0-2-1,2.83,2.83,0,0,0-1.92.81,4.49,4.49,0,0,0-1.15,2l.35,8.31a5.41,5.41,0,0,1,.86.25,5.92,5.92,0,0,1,.81.4l0,1.13-7.9.33,0-1.13a9.93,9.93,0,0,1,1.94-.8l-.46-11-2-.16,0-1.13a6.27,6.27,0,0,1,1-.39q.62-.19,1.34-.37t1.48-.32l1.38-.22,1,0,.13,3.07h0a6,6,0,0,1,1.79-2.24,5.05,5.05,0,0,1,3-1,7.13,7.13,0,0,1,2.1.2,3.4,3.4,0,0,1,1.61.93,4.83,4.83,0,0,1,1.07,1.89,11.53,11.53,0,0,1,.47,3l.3,7.14a5.23,5.23,0,0,1,2,.63Z"/><path class="g" d="M302.52,478.34a3.85,3.85,0,0,1-.35,1.32,5,5,0,0,1-.76,1.18,4.21,4.21,0,0,1-1.1.9,4,4,0,0,1-1.41.48,5.48,5.48,0,0,1-4.71-1.19q-1.79-1.62-2.36-5.43a10.07,10.07,0,0,1,0-3.49,7,7,0,0,1,1.13-2.68,6.13,6.13,0,0,1,2.09-1.85,8.71,8.71,0,0,1,2.94-.95c.35-.05.66-.09.9-.1l.69,0a2.92,2.92,0,0,1,.61.06l.67.13-.77-5.22-2.28.09-.17-1.12a6.11,6.11,0,0,1,1.09-.49q.7-.25,1.48-.5l1.53-.48,1.24-.39,1-.15,3,20.1,2-.05.15,1a6,6,0,0,1-1,.54q-.62.27-1.31.53t-1.33.45l-1.08.33-1,.15-.74-3.18ZM300,479.65a2.51,2.51,0,0,0,1.65-.91,4.12,4.12,0,0,0,.71-2.37l-1.17-7.94a3.52,3.52,0,0,0-1-.24,5.94,5.94,0,0,0-1.45.06,2.55,2.55,0,0,0-2.22,1.91,10.93,10.93,0,0,0-.07,4.61,9.59,9.59,0,0,0,1.22,3.74A2.24,2.24,0,0,0,300,479.65Z"/><path class="g" d="M333,472.25a6.35,6.35,0,0,1,1.28,0l1.14.13.35,1.08-8.74,2.83-.35-1.08a7.42,7.42,0,0,1,1-.91,10.6,10.6,0,0,1,1-.67l-5.2-16.07a8.89,8.89,0,0,1-2.59-.07l-.35-1.08,3-1q.57-.18,1.28-.45l1.5-.56,1.59-.61q.81-.31,1.58-.56a11.57,11.57,0,0,1,3-.58,7,7,0,0,1,2.62.33,5.15,5.15,0,0,1,2.05,1.31,5.89,5.89,0,0,1,1.33,2.33,5.71,5.71,0,0,1,.09,3.69,6.28,6.28,0,0,1-2.09,2.85q1.71,1.41,3.58,2.84t3.85,2.7l1.65.46.31,1-4.74,1.53-1.52-.54a18.55,18.55,0,0,1-3.48-2.85q-1.67-1.72-3.07-3.44l-2.3.74Zm-3.86-16.82a5.13,5.13,0,0,0-1.37.63l2.56,7.92,1.68-.54a3.54,3.54,0,0,0,2.15-1.84,4.41,4.41,0,0,0,0-3.41,5.34,5.34,0,0,0-.87-1.71,3.4,3.4,0,0,0-1.2-1,3.36,3.36,0,0,0-1.43-.32A5,5,0,0,0,329.17,455.43Z"/><path class="g" d="M357.11,442.48q.5,1.25.95,2.62t.75,2.61l-1.12.5-2.7-2.65-5.09,2.29,3,6.67,3.32-1.5.25-2.63.87-.39a32.09,32.09,0,0,1,1.47,2.9q.73,1.63,1.24,3.11l-.87.39L357,454.79l-3.32,1.49,3.19,7.07,5.3-2.39-.11-4.1,1.12-.5q.34.47.74,1.07t.78,1.27q.38.66.74,1.35t.63,1.29L351.38,468l-.47-1a10.28,10.28,0,0,1,.83-.93,7.1,7.1,0,0,1,1-.87l-6.93-15.4a10.43,10.43,0,0,1-1.3.21,6.14,6.14,0,0,1-1.29,0l-.46-1Z"/><path class="g" d="M377.06,453.11a12.81,12.81,0,0,1,1.55-.51,9,9,0,0,1,1.49-.26l.57,1-8.58,5-.57-1a6.3,6.3,0,0,1,.77-1.07,11.18,11.18,0,0,1,.9-.91l-8.52-14.58a7.84,7.84,0,0,1-1.31.37,6.65,6.65,0,0,1-1.24.12l-.57-1,3.25-1.9q1-.6,2.3-1.48t2.37-1.53a15.08,15.08,0,0,1,2.82-1.29,8,8,0,0,1,2.85-.44,5.67,5.67,0,0,1,2.64.76,6.09,6.09,0,0,1,2.18,2.3,6.06,6.06,0,0,1,.39,5.75,8.1,8.1,0,0,1-1.69,2.42,12.17,12.17,0,0,1-2.5,1.93l-.41.24-.61.34-.63.34a3.57,3.57,0,0,1-.45.21Zm-7.28-15.65a7.69,7.69,0,0,0-.79.51,5,5,0,0,0-.51.46l4.58,7.83a3,3,0,0,0,.75-.32l.75-.42a4.54,4.54,0,0,0,1.2-1,3.65,3.65,0,0,0,.72-1.39,4.17,4.17,0,0,0,.07-1.74,5.79,5.79,0,0,0-.77-2,4.73,4.73,0,0,0-2.78-2.45A4.22,4.22,0,0,0,369.78,437.45Z"/><path class="g" d="M386.71,437.41a13.64,13.64,0,0,1-2.06-3.84,9.68,9.68,0,0,1-.51-3.91,8.78,8.78,0,0,1,1.18-3.7,12,12,0,0,1,6.92-5.19,8.66,8.66,0,0,1,3.87-.09,9.84,9.84,0,0,1,3.6,1.59,14.49,14.49,0,0,1,5.17,6.9,9.81,9.81,0,0,1,.52,3.9,8.65,8.65,0,0,1-1.17,3.69,12,12,0,0,1-6.92,5.19,8.78,8.78,0,0,1-3.88.1,9.67,9.67,0,0,1-3.61-1.58A13.65,13.65,0,0,1,386.71,437.41Zm4.06-3a19.6,19.6,0,0,0,2.36,2.65,9.36,9.36,0,0,0,2.43,1.68,5.13,5.13,0,0,0,2.42.5,4.2,4.2,0,0,0,2.32-.9,3.53,3.53,0,0,0,1.34-1.84,4.92,4.92,0,0,0,.06-2.36,10.05,10.05,0,0,0-1-2.74,23.07,23.07,0,0,0-1.92-3,20.59,20.59,0,0,0-2.35-2.66A9.69,9.69,0,0,0,394,424a4.88,4.88,0,0,0-2.4-.51,4.26,4.26,0,0,0-2.35.92,3.8,3.8,0,0,0-1.43,1.92,4.66,4.66,0,0,0-.07,2.37,9.72,9.72,0,0,0,1.06,2.71A26,26,0,0,0,390.77,434.37Z"/><path class="g" d="M417.88,423.05a6.41,6.41,0,0,1,1.15-.57l1.08-.38.78.82-6.64,6.35-.78-.82a7.48,7.48,0,0,1,.52-1.27,10.5,10.5,0,0,1,.65-1.05L403,413.94A8.9,8.9,0,0,1,400.6,415l-.78-.82L402.1,412q.43-.41,1-1l1.1-1.16,1.17-1.24q.59-.63,1.18-1.19a11.6,11.6,0,0,1,2.45-1.82,7,7,0,0,1,2.5-.84,5.16,5.16,0,0,1,2.42.28,5.89,5.89,0,0,1,2.21,1.51,5.7,5.7,0,0,1,1.69,3.28,6.28,6.28,0,0,1-.64,3.47q2.15.52,4.47,1t4.64.75l1.69-.3.7.73L425,419l-1.6.18a18.6,18.6,0,0,1-4.37-1q-2.25-.82-4.27-1.76L413,418Zm-10.8-13.46a5.14,5.14,0,0,0-1,1.17l5.75,6,1.28-1.22a3.54,3.54,0,0,0,1.13-2.59,4.41,4.41,0,0,0-1.46-3.09,5.33,5.33,0,0,0-1.53-1.16,3.41,3.41,0,0,0-1.5-.36,3.35,3.35,0,0,0-1.43.33A4.93,4.93,0,0,0,407.08,409.59Z"/><path class="g" d="M440.65,401.6,434,409.43l-.87-.73q.21-.61.5-1.35a9.33,9.33,0,0,1,.71-1.41l-12.93-11-2.24,2.64,2.66,4.75-.79.93q-.53-.29-1.31-.8t-1.59-1.08q-.81-.57-1.59-1.15t-1.3-1l12.29-14.5q.54.46,1.24,1.13t1.38,1.37q.69.7,1.31,1.38t1,1.17l-.81,1-5.13-1.84-2.24,2.64,12.93,11q.62-.5,1.27-.94a7.55,7.55,0,0,1,1.26-.71Z"/><text class="h" transform="matrix(0.51, -1.09, 1.09, 0.51, 85.31, 200.77)">P</text><text class="h" transform="translate(101.01 168.44) rotate(-54.81)">R</text><text class="h" transform="translate(120.31 142.24) rotate(-47.25)">I</text><text class="h" transform="matrix(0.77, -0.64, 0.64, 0.77, 132.94, 128.15)">V</text><text class="h" transform="translate(154.82 109.91) rotate(-31.14)">A</text><text class="h" transform="translate(181.86 93.79) rotate(-22.3)">C</text><text class="h" transform="translate(209.01 82.74) rotate(-13.31)">Y</text><text class="h" transform="translate(241.02 75.96) rotate(-6.27)"> </text><text class="h" transform="translate(255.84 74.06) rotate(1.77) scale(1.2)">A</text><text class="h" transform="translate(298.73 75.65) rotate(13.54)">D</text><text class="h" transform="translate(331.27 84.04) rotate(23.51)">V</text><text class="h" transform="matrix(0.85, 0.52, -0.52, 0.85, 362.15, 98.29)">I</text><text class="h" transform="translate(378.52 108.23) rotate(38.12)">S</text><text class="h" transform="matrix(0.68, 0.73, -0.73, 0.68, 399.35, 124.47)">O</text><text class="h" transform="matrix(0.55, 0.84, -0.84, 0.55, 422.55, 149.89)">R</text><text class="h" transform="translate(438.38 174.03) rotate(65.34)">Y</text><path class="i" d="M87.62,187.85a21.53,21.53,0,0,1,1.66-2.19,15.29,15.29,0,0,1,1.81-1.79l1.73.81-7.09,15.19L84,199a10.61,10.61,0,0,1,0-2.23,18.41,18.41,0,0,1,.38-2.13l-25.81-12a13.29,13.29,0,0,1-1.46,1.76,11.15,11.15,0,0,1-1.61,1.36L53.81,185l2.68-5.75q.85-1.82,1.77-4.26t1.83-4.39a25.5,25.5,0,0,1,2.68-4.5,13.54,13.54,0,0,1,3.54-3.35,9.56,9.56,0,0,1,4.38-1.48,10.27,10.27,0,0,1,5.23,1.11,10.23,10.23,0,0,1,6.06,7.6,13.69,13.69,0,0,1,0,5A20.6,20.6,0,0,1,80.34,180l-.34.73q-.23.5-.52,1.06l-.56,1.07a6,6,0,0,1-.42.72ZM62.5,173.13a12.85,12.85,0,0,0-.6,1.47,8.46,8.46,0,0,0-.27,1.12l13.86,6.47a5,5,0,0,0,.73-1.16c.27-.54.48-1,.64-1.31a7.67,7.67,0,0,0,.7-2.56,6.2,6.2,0,0,0-.33-2.62,7,7,0,0,0-1.56-2.48,9.76,9.76,0,0,0-3-2.08q-3.65-1.7-6.21-.73A7.11,7.11,0,0,0,62.5,173.13Z"/><path class="i" d="M104.81,158.19a9,9,0,0,1,1.43-1.09l1.39-.82,1.3.92-7.44,10.56-1.3-.92a10.53,10.53,0,0,1,.38-1.89,14.83,14.83,0,0,1,.61-1.62l-19.4-13.68a12.54,12.54,0,0,1-3,2.11l-1.3-.92,2.56-3.63q.48-.68,1.07-1.58l1.21-1.89,1.27-2q.65-1,1.3-2a16.3,16.3,0,0,1,2.88-3.18A9.78,9.78,0,0,1,91,134.74a7.24,7.24,0,0,1,3.41-.26A8.26,8.26,0,0,1,97.89,136a8,8,0,0,1,3.22,4.07,8.83,8.83,0,0,1,.06,5q3.11.14,6.43.17t6.6-.22l2.25-.88,1.17.82-4,5.72-2.16.68a26.13,26.13,0,0,1-6.31-.27q-3.33-.52-6.36-1.28l-2,2.78ZM86.28,142.54a7.25,7.25,0,0,0-1,1.87l9.56,6.74,1.43-2a5,5,0,0,0,.86-3.88,6.21,6.21,0,0,0-2.84-3.86,7.5,7.5,0,0,0-2.42-1.19,4.79,4.79,0,0,0-2.17-.09,4.74,4.74,0,0,0-1.88.84A6.94,6.94,0,0,0,86.28,142.54Z"/><path class="i" d="M130,131.71l-8.88,9.61L120,140.23a10.81,10.81,0,0,1,1.41-3.32L104,120.8a9.12,9.12,0,0,1-1.53,1,9.81,9.81,0,0,1-1.67.69l-1.17-1.08,8.88-9.61,1.17,1.08a8.62,8.62,0,0,1-.55,1.74,9.74,9.74,0,0,1-.86,1.58l17.43,16.11a15.52,15.52,0,0,1,1.52-1,7.83,7.83,0,0,1,1.68-.7Z"/><path class="i" d="M134.31,92.62a13,13,0,0,1-1.82.79q-.91.31-1.67.51l-1-1.23L138,85.92l1,1.23a7.62,7.62,0,0,1-.59,1.36,11.44,11.44,0,0,1-1,1.5l9.44,26.62-2.88,3-25.55-14a15.43,15.43,0,0,1-1.63.66,9,9,0,0,1-1.57.4l-1-1.23L125,96.61l1,1.23q-.34.71-.8,1.53a12.76,12.76,0,0,1-1.08,1.59l15,9,3.25,2.43.06-.05-1.85-3.69Z"/><path class="i" d="M163.69,104.55l-8.87,5.36-.82-1.36a9.34,9.34,0,0,1,.86-1.38,9.62,9.62,0,0,1,1.06-1.2l-4.73-28.75,2.66-1.61,23,17.71a10.88,10.88,0,0,1,1.68-.45,7.21,7.21,0,0,1,1.64-.13L181,94.1l-11.23,6.79-.82-1.36q.49-.73,1.1-1.5a12.16,12.16,0,0,1,1.25-1.34l-5.53-4.45-8,4.82,1.33,7a10.06,10.06,0,0,1,3.75-.85Zm-6.46-10.36,6.35-3.84-6.48-5.45-2.55-2.67-.07,0,1.12,3.64Z"/><path class="i" d="M199.47,77.05l1.59-.65q.41.56.9,1.37t1,1.77q.5.95.94,1.9t.75,1.73a10,10,0,0,1-2.9,2.6,26.57,26.57,0,0,1-4,2.06,21.68,21.68,0,0,1-6.17,1.6,12,12,0,0,1-5.5-.69,12.39,12.39,0,0,1-4.65-3.21,19.45,19.45,0,0,1-3.63-6,17.8,17.8,0,0,1-1.5-6.8,13.12,13.12,0,0,1,1.18-5.58,12.54,12.54,0,0,1,3.3-4.28A18.13,18.13,0,0,1,185.62,60a28.84,28.84,0,0,1,4.79-1.53,14.87,14.87,0,0,1,3.8-.4q.25.62.59,1.61t.64,2.12q.3,1.12.55,2.22t.38,1.86l-1.63.67-4.54-5a3.84,3.84,0,0,0-1.25.15,11.58,11.58,0,0,0-1.64.54,7.66,7.66,0,0,0-2.72,1.87,7.22,7.22,0,0,0-1.65,3.06,11.25,11.25,0,0,0-.24,4.29A21.06,21.06,0,0,0,184.24,77q2.28,5.55,5.71,7.63a7.66,7.66,0,0,0,7.24.52,9,9,0,0,0,1.77-.93,2.1,2.1,0,0,0,.83-.91Z"/><path class="i" d="M220.74,49.8l10-2.36.37,1.55a14.42,14.42,0,0,1-1.2,1,6,6,0,0,1-1.42.83l-4.64,15.75L226,75.83a5.52,5.52,0,0,1,1.71,0,14.39,14.39,0,0,1,1.67.4l.37,1.55-12.57,3-.37-1.55a14.27,14.27,0,0,1,1.39-1.06,9.92,9.92,0,0,1,1.68-.91l-2.17-9.18-11.54-12a9.42,9.42,0,0,1-1.89-.07,15.14,15.14,0,0,1-1.7-.33l-.37-1.55L215.64,51l.37,1.55a14.75,14.75,0,0,1-1.15,1,8.71,8.71,0,0,1-1.59.94L221.69,64l3-12.25a12.73,12.73,0,0,1-1.92-.11,13.23,13.23,0,0,1-1.62-.31Z"/><path class="i" d="M268.27,74.45l-12.42-.38.06-1.91a11.28,11.28,0,0,1,1.76-.83,11.59,11.59,0,0,1,1.85-.52l14-32,3.72.11,11.62,32.83a13,13,0,0,1,2,.64,8.66,8.66,0,0,1,1.73.93l-.06,1.91-15.74-.49.06-1.91q1-.42,2.09-.79a14.63,14.63,0,0,1,2.13-.54l-2.67-8.09L267.21,63,264,70.94a12.07,12.07,0,0,1,4.33,1.59Zm.25-14.64,8.9.27-3-9.71L273.62,46h-.1l-1.24,4.39Z"/><path class="i" d="M299.54,75.84l.37-1.55a9.39,9.39,0,0,1,1.72-.34,11.15,11.15,0,0,1,1.91,0l5.56-23.08a15.91,15.91,0,0,1-1.69-.95,9.73,9.73,0,0,1-1.37-1l.37-1.55,4.73,1.14q.69.17,1.72.37l2.15.41,2.17.39q1.05.19,1.79.37a20.44,20.44,0,0,1,6.11,2.46,13.27,13.27,0,0,1,4.07,3.87,12.2,12.2,0,0,1,1.91,5.16,17.12,17.12,0,0,1-.43,6.37,18.94,18.94,0,0,1-2.46,5.92,12.8,12.8,0,0,1-4.07,4,13.6,13.6,0,0,1-5.69,1.84,21.33,21.33,0,0,1-7.29-.61q-.53-.13-1.41-.4L307.81,78l-2-.61q-1-.31-1.78-.49ZM317.8,52.5q-.73-.18-1.48-.31T315,52l-5.68,23.61a3.45,3.45,0,0,0,.56.2l.83.24.83.24.61.17a8,8,0,0,0,4.25,0,8.25,8.25,0,0,0,3.35-2,12.37,12.37,0,0,0,2.49-3.54,22.91,22.91,0,0,0,1.64-4.65,18.59,18.59,0,0,0,.53-4.44,12.36,12.36,0,0,0-.68-4.09,7.94,7.94,0,0,0-5.95-5.23Z"/><path class="i" d="M363.55,69.13A13.12,13.12,0,0,1,362,67.87q-.69-.67-1.21-1.26l.64-1.46,9.77,4.25-.64,1.46a7.6,7.6,0,0,1-1.48.09,11.32,11.32,0,0,1-1.77-.18l-19.43,20.5-4-1.19L344.74,61a15.4,15.4,0,0,1-1.33-1.15,8.93,8.93,0,0,1-1.07-1.22l.63-1.46,12.81,5.57-.64,1.46q-.79,0-1.73,0a12.79,12.79,0,0,1-1.91-.24L350.3,81.39l-.69,4,.08,0,2.45-3.32Z"/><path class="i" d="M374.4,105.74l-11.18-6.81.83-1.36a10.82,10.82,0,0,1,3.53.73L379.94,78a9.09,9.09,0,0,1-1.26-1.31,9.82,9.82,0,0,1-1-1.5l.83-1.36,11.18,6.81L388.84,82a8.57,8.57,0,0,1-1.82-.2,9.64,9.64,0,0,1-1.72-.53L373,101.58a15.63,15.63,0,0,1,1.25,1.3,7.75,7.75,0,0,1,1,1.51Z"/><path class="i" d="M385.85,109.55a4.61,4.61,0,0,0,.49,1.48,5.21,5.21,0,0,0,1.5,1.69,6,6,0,0,0,3.76,1.43,4,4,0,0,0,3.26-1.68,3.65,3.65,0,0,0,.83-2.65,11,11,0,0,0-.77-3.06q-.64-1.62-1.47-3.36a19.31,19.31,0,0,1-1.28-3.59,10.3,10.3,0,0,1-.24-3.73,7.57,7.57,0,0,1,1.7-3.76A7.89,7.89,0,0,1,396.42,90a6.94,6.94,0,0,1,3.17-.68,9.1,9.1,0,0,1,3.36.77,15.08,15.08,0,0,1,3.37,2,29.82,29.82,0,0,1,3.52,3.22,16.93,16.93,0,0,1,2.43,3.32q-.55.63-1.31,1.43t-1.55,1.53q-.79.74-1.52,1.36t-1.25,1l-1.35-1.06,2-5.72a6.63,6.63,0,0,0-.89-1.29A9.89,9.89,0,0,0,405,94.48,4.82,4.82,0,0,0,402,93.36a3.16,3.16,0,0,0-2.62,1.36,3.88,3.88,0,0,0-.88,2.75,11.32,11.32,0,0,0,.73,3.16q.62,1.66,1.47,3.47a20.39,20.39,0,0,1,1.32,3.67,11,11,0,0,1,.29,3.72,7,7,0,0,1-1.6,3.68,7.85,7.85,0,0,1-6.23,3.35q-3.64.05-8-3.34a22.4,22.4,0,0,1-2-1.8,23.26,23.26,0,0,1-1.74-2,21.4,21.4,0,0,1-1.31-1.83,4.78,4.78,0,0,1-.67-1.43,19.44,19.44,0,0,1,1.45-1.5l1.65-1.53q.83-.76,1.62-1.42t1.42-1.13l1.35,1.06Z"/><path class="i" d="M411.21,115.67a19.17,19.17,0,0,1,5.07-3.45,13.62,13.62,0,0,1,5.39-1.29A12.35,12.35,0,0,1,427,112a16.89,16.89,0,0,1,8.29,8.9,12.15,12.15,0,0,1,.7,5.4,13.81,13.81,0,0,1-1.69,5.27,20.36,20.36,0,0,1-8.87,8.26,13.8,13.8,0,0,1-5.37,1.31,12.15,12.15,0,0,1-5.33-1.08,16.89,16.89,0,0,1-8.29-8.9,12.34,12.34,0,0,1-.71-5.41,13.62,13.62,0,0,1,1.67-5.28A19.18,19.18,0,0,1,411.21,115.67Zm4.86,5.22a27.5,27.5,0,0,0-3.35,3.69,13.16,13.16,0,0,0-2,3.65,7.2,7.2,0,0,0-.33,3.46A5.91,5.91,0,0,0,412,134.8a5,5,0,0,0,2.78,1.6,6.91,6.91,0,0,0,3.3-.27,14.11,14.11,0,0,0,3.67-1.84,32.29,32.29,0,0,0,3.88-3.12,29,29,0,0,0,3.37-3.68,13.63,13.63,0,0,0,2-3.61,6.88,6.88,0,0,0,.36-3.43,6,6,0,0,0-1.64-3.15,5.35,5.35,0,0,0-2.89-1.72,6.57,6.57,0,0,0-3.32.25,13.68,13.68,0,0,0-3.63,1.89A36.53,36.53,0,0,0,416.07,120.89Z"/><path class="i" d="M430.68,157.21a9.06,9.06,0,0,1,.49,1.74q.13.81.25,1.59l-1.33.87L423,150.6l1.33-.87a10.45,10.45,0,0,1,1.61,1,14.93,14.93,0,0,1,1.29,1.16l19.87-13a12.54,12.54,0,0,1-.87-3.54l1.33-.87,2.43,3.72q.46.7,1.08,1.57t1.32,1.82l1.41,1.93q.72,1,1.34,1.93a16.32,16.32,0,0,1,1.89,3.85,9.77,9.77,0,0,1,.51,3.67,7.23,7.23,0,0,1-1,3.27,8.27,8.27,0,0,1-2.66,2.67,8,8,0,0,1-5,1.49,8.83,8.83,0,0,1-4.64-1.78q-1.28,2.84-2.53,5.91t-2.23,6.22v2.41l-1.19.78-3.83-5.86.16-2.26a26.1,26.1,0,0,1,2.57-5.77q1.71-2.9,3.53-5.44l-1.86-2.84Zm21.38-11.46a7.25,7.25,0,0,0-1.37-1.63l-9.79,6.4,1.36,2.08a5,5,0,0,0,3.29,2.23,6.21,6.21,0,0,0,4.64-1.22,7.52,7.52,0,0,0,2-1.81,4.78,4.78,0,0,0,.88-2,4.73,4.73,0,0,0-.09-2.06A6.93,6.93,0,0,0,452.06,145.74Z"/><path class="i" d="M473,179l4.29,9.34-1.45.67a14.54,14.54,0,0,1-1.25-1,6,6,0,0,1-1.09-1.23l-16.35-1.45-8.61,4a5.5,5.5,0,0,1,.29,1.69,14.21,14.21,0,0,1-.07,1.71l-1.45.66-5.39-11.74,1.45-.67a14.3,14.3,0,0,1,1.31,1.15,10,10,0,0,1,1.23,1.47l8.58-3.94L463.92,166a9.46,9.46,0,0,1-.3-1.87,15,15,0,0,1,0-1.73l1.45-.67,5.74,12.5-1.45.67q-.55-.39-1.17-.94a8.64,8.64,0,0,1-1.23-1.37l-7.71,10.14,12.59.49a12.82,12.82,0,0,1-.27-1.9,13.42,13.42,0,0,1,0-1.65Z"/><text class="j" transform="matrix(-1.15, -0.33, 0.33, -1.15, 224.47, 429.06)">0</text><text class="j" transform="translate(219.24 427.55) rotate(-162.22) scale(1.2)">1</text><text class="j" transform="matrix(-1.13, -0.4, 0.4, -1.13, 214.09, 425.89)">0</text><text class="j" transform="translate(208.96 424.04) rotate(-158.51) scale(1.2)">0</text><text class="j" transform="matrix(-1.1, -0.48, 0.48, -1.1, 203.93, 422.05)">0</text><text class="j" transform="matrix(-1.09, -0.51, 0.51, -1.09, 198.94, 419.88)">0</text><text class="j" transform="translate(194.03 417.55) rotate(-152.97) scale(1.2)">1</text><text class="j" transform="translate(189.2 415.07) rotate(-151.12) scale(1.2)">1</text><text class="j" transform="translate(184.43 412.41) rotate(-149.68) scale(1.2)"> </text><text class="j" transform="translate(181.82 410.88) rotate(-148.24) scale(1.2)">0</text><text class="j" transform="translate(177.22 408.02) rotate(-146.41) scale(1.2)">1</text><text class="j" transform="translate(172.71 405) rotate(-144.57) scale(1.2)">1</text><text class="j" transform="translate(168.29 401.84) rotate(-142.74) scale(1.2)">0</text><text class="j" transform="matrix(-0.93, -0.76, 0.76, -0.93, 163.98, 398.54)">1</text><text class="j" transform="translate(159.76 395.09) rotate(-139.07) scale(1.2)">1</text><text class="j" transform="translate(155.67 391.53) rotate(-137.24) scale(1.2)">1</text><text class="j" transform="translate(151.68 387.82) rotate(-135.41) scale(1.2)">1</text><text class="j" transform="translate(147.83 383.98) rotate(-133.99) scale(1.2)"> </text><text class="j" transform="translate(145.72 381.8) rotate(-132.56) scale(1.2)">0</text><text class="j" transform="matrix(-0.78, -0.91, 0.91, -0.78, 142.07, 377.8)">1</text><text class="j" transform="translate(138.52 373.65) rotate(-128.89) scale(1.2)">1</text><text class="j" transform="translate(135.12 369.42) rotate(-127.06) scale(1.2)">0</text><text class="j" transform="translate(131.86 365.08) rotate(-125.22) scale(1.2)">0</text><text class="j" transform="matrix(-0.66, -1, 1, -0.66, 128.74, 360.63)">1</text><text class="j" transform="translate(125.77 356.1) rotate(-121.55) scale(1.2)">0</text><text class="j" transform="translate(122.93 351.44) rotate(-119.7) scale(1.2)">0</text><text class="j" transform="translate(120.26 346.71) rotate(-118.27) scale(1.2)"> </text><text class="j" transform="translate(118.82 344.04) rotate(-116.83) scale(1.2)">0</text><text class="j" transform="translate(116.39 339.2) rotate(-114.98) scale(1.2)">1</text><text class="j" transform="matrix(-0.47, -1.1, 1.1, -0.47, 114.11, 334.26)">1</text><text class="j" transform="matrix(-0.44, -1.12, 1.12, -0.44, 111.99, 329.27)">0</text><text class="j" transform="translate(110.04 324.2) rotate(-109.43) scale(1.2)">1</text><text class="j" transform="translate(108.24 319.06) rotate(-107.57) scale(1.2)">0</text><text class="j" transform="translate(106.62 313.88) rotate(-105.71) scale(1.2)">0</text><text class="j" transform="translate(105.16 308.66) rotate(-103.86) scale(1.2)">1</text><text class="j" transform="matrix(-0.26, -1.17, 1.17, -0.26, 103.88, 303.33)"> </text><text class="j" transform="translate(103.23 300.41) rotate(-100.97) scale(1.2)">0</text><text class="j" transform="translate(102.21 295.06) rotate(-99.12) scale(1.2)">1</text><text class="j" transform="translate(101.37 289.71) rotate(-97.28) scale(1.2)">1</text><text class="j" transform="translate(100.69 284.3) rotate(-95.44) scale(1.2)">0</text><text class="j" transform="translate(100.19 278.89) rotate(-93.61) scale(1.2)">1</text><text class="j" transform="matrix(-0.04, -1.2, 1.2, -0.04, 99.87, 273.47)">1</text><text class="j" transform="translate(99.68 268.08) rotate(-89.07) scale(1.2)">0</text><text class="j" transform="translate(99.73 262.6) rotate(-88.17) scale(1.2)">0</text><text class="j" transform="translate(99.93 257.15) rotate(-86.76) scale(1.2)"> </text><text class="j" transform="translate(100.1 254.13) rotate(-85.33) scale(1.2)">0</text><text class="j" transform="translate(100.55 248.72) rotate(-83.5) scale(1.2)">1</text><text class="j" transform="matrix(0.17, -1.19, 1.19, 0.17, 101.18, 243.33)">1</text><text class="j" transform="translate(101.99 237.96) rotate(-79.82) scale(1.2)">0</text><text class="j" transform="translate(102.96 232.61) rotate(-77.96) scale(1.2)">1</text><text class="j" transform="matrix(0.29, -1.16, 1.16, 0.29, 104.11, 227.29)">0</text><text class="j" transform="translate(105.43 222.03) rotate(-74.26) scale(1.2)">0</text><text class="j" transform="matrix(0.36, -1.14, 1.14, 0.36, 106.92, 216.81)">1</text><text class="j" transform="matrix(0.39, -1.13, 1.13, 0.39, 108.6, 211.61)"> </text><text class="j" transform="translate(109.58 208.76) rotate(-69.5) scale(1.2)">0</text><text class="j" transform="translate(111.49 203.69) rotate(-67.66) scale(1.2)">1</text><text class="j" transform="matrix(0.49, -1.09, 1.09, 0.49, 113.57, 198.67)">1</text><text class="j" transform="matrix(0.53, -1.08, 1.08, 0.53, 115.82, 193.7)">0</text><text class="j" transform="translate(118.21 188.85) rotate(-62.11) scale(1.2)">0</text><text class="j" transform="matrix(0.6, -1.04, 1.04, 0.6, 120.76, 184.06)">1</text><text class="j" transform="translate(123.48 179.34) rotate(-58.41) scale(1.2)">1</text><text class="j" transform="translate(126.33 174.73) rotate(-56.58) scale(1.2)">1</text><text class="j" transform="matrix(0.69, -0.98, 0.98, 0.69, 129.37, 170.17)"> </text><text class="j" transform="translate(131.08 167.71) rotate(-53.71) scale(1.2)">0</text><text class="j" transform="matrix(0.74, -0.94, 0.94, 0.74, 134.31, 163.34)">1</text><text class="j" transform="translate(137.67 159.08) rotate(-50.05) scale(1.2)">1</text><text class="j" transform="translate(141.18 154.91) rotate(-48.21) scale(1.2)">0</text><text class="j" transform="translate(144.81 150.88) rotate(-46.39) scale(1.2)">0</text><text class="j" transform="matrix(0.86, -0.84, 0.84, 0.86, 148.58, 146.94)">1</text><text class="j" transform="translate(152.45 143.15) rotate(-42.73) scale(1.2)">0</text><text class="j" transform="translate(156.44 139.48) rotate(-40.9) scale(1.2)">1</text><text class="j" transform="translate(160.59 135.92) rotate(-39.47) scale(1.2)"> </text><text class="j" transform="translate(162.93 133.99) rotate(-38.03) scale(1.2)">0</text><text class="j" transform="translate(167.22 130.66) rotate(-36.2) scale(1.2)">1</text><text class="j" transform="translate(171.61 127.46) rotate(-34.36) scale(1.2)">1</text><text class="j" transform="translate(176.09 124.42) rotate(-32.54) scale(1.2)">0</text><text class="j" transform="translate(180.69 121.5) rotate(-30.69) scale(1.2)">1</text><text class="j" transform="translate(185.36 118.75) rotate(-28.85) scale(1.2)">1</text><text class="j" transform="matrix(1.07, -0.54, 0.54, 1.07, 190.13, 116.14)">1</text><text class="j" transform="translate(194.99 113.68) rotate(-25.15) scale(1.2)">0</text><text class="j" transform="translate(199.94 111.39) rotate(-23.71) scale(1.2)"> </text><text class="j" transform="translate(202.68 110.18) rotate(-22.27) scale(1.2)">0</text><text class="j" transform="translate(207.73 108.13) rotate(-20.41) scale(1.2)">1</text><text class="j" transform="translate(212.83 106.25) rotate(-18.55) scale(1.2)">1</text><text class="j" transform="translate(217.97 104.54) rotate(-16.7) scale(1.2)">0</text><text class="j" transform="translate(223.19 102.99) rotate(-14.84) scale(1.2)">0</text><text class="j" transform="translate(228.44 101.62) rotate(-12.99) scale(1.2)">0</text><text class="j" transform="translate(233.73 100.41) rotate(-11.14) scale(1.2)">1</text><text class="j" transform="matrix(1.18, -0.19, 0.19, 1.18, 239.08, 99.37)">1</text><text class="j" transform="matrix(1.19, -0.16, 0.16, 1.19, 244.44, 98.52)"> </text><text class="j" transform="translate(247.43 98.11) rotate(-6.42) scale(1.2)">0</text><text class="j" transform="matrix(1.2, -0.1, 0.1, 1.2, 252.83, 97.52)">1</text><text class="j" transform="translate(258.27 97.1) rotate(-2.75) scale(1.2)">1</text><text class="j" transform="translate(263.68 96.85) rotate(-0.95) scale(1.2)">0</text><text class="j" transform="translate(269.13 96.77) rotate(0.93) scale(1.2)">0</text><text class="j" transform="matrix(1.2, 0.06, -0.06, 1.2, 274.56, 96.87)">1</text><text class="j" transform="translate(279.99 97.14) rotate(4.5) scale(1.2)">0</text><text class="j" transform="translate(285.4 97.58) rotate(6.33) scale(1.2)">1</text><text class="j" transform="matrix(1.19, 0.16, -0.16, 1.19, 290.81, 98.21)"> </text><text class="j" transform="translate(293.8 98.61) rotate(9.2) scale(1.2)">0</text><text class="j" transform="matrix(1.18, 0.23, -0.23, 1.18, 299.16, 99.5)">0</text><text class="j" transform="translate(304.48 100.55) rotate(12.9) scale(1.2)">1</text><text class="j" transform="translate(309.78 101.78) rotate(14.75) scale(1.2)">0</text><text class="j" transform="translate(315.04 103.18) rotate(16.61) scale(1.2)">0</text><text class="j" transform="translate(320.23 104.75) rotate(18.46) scale(1.2)">0</text><text class="j" transform="matrix(1.13, 0.42, -0.42, 1.13, 325.38, 106.48)">0</text><text class="j" transform="matrix(1.11, 0.45, -0.45, 1.11, 330.48, 108.39)">0</text><text class="j" transform="matrix(1.1, 0.48, -0.48, 1.1, 335.5, 110.47)"> </text><text class="j" transform="translate(338.27 111.67) rotate(25.06) scale(1.2)">0</text><text class="j" transform="matrix(1.07, 0.54, -0.54, 1.07, 343.2, 113.99)">1</text><text class="j" transform="translate(348.04 116.47) rotate(28.76) scale(1.2)">1</text><text class="j" transform="matrix(1.03, 0.61, -0.61, 1.03, 352.78, 119.09)">0</text><text class="j" transform="translate(357.44 121.86) rotate(32.44) scale(1.2)">1</text><text class="j" transform="translate(362.02 124.79) rotate(34.28) scale(1.2)">0</text><text class="j" transform="matrix(0.97, 0.71, -0.71, 0.97, 366.5, 127.87)">0</text><text class="j" transform="translate(370.88 131.08) rotate(37.95) scale(1.2)">1</text><text class="j" transform="translate(375.18 134.46) rotate(39.38) scale(1.2)"> </text><text class="j" transform="matrix(0.91, 0.78, -0.78, 0.91, 377.5, 136.37)">0</text><text class="j" transform="matrix(0.88, 0.81, -0.81, 0.88, 381.61, 139.94)">1</text><text class="j" transform="translate(385.59 143.62) rotate(44.47) scale(1.2)">1</text><text class="j" transform="translate(389.47 147.45) rotate(46.3) scale(1.2)">0</text><text class="j" transform="translate(393.21 151.38) rotate(48.13) scale(1.2)">1</text><text class="j" transform="translate(396.81 155.43) rotate(49.95) scale(1.2)">1</text><text class="j" transform="translate(400.31 159.62) rotate(51.8) scale(1.2)">1</text><text class="j" transform="translate(403.66 163.89) rotate(53.63) scale(1.2)">0</text><text class="j" transform="matrix(0.69, 0.98, -0.98, 0.69, 406.86, 168.29)"> </text><text class="j" transform="translate(408.59 170.76) rotate(56.48) scale(1.2)">0</text><text class="j" transform="translate(411.58 175.31) rotate(58.33) scale(1.2)">0</text><text class="j" transform="translate(414.42 179.93) rotate(60.17) scale(1.2)">1</text><text class="j" transform="translate(417.11 184.66) rotate(62.01) scale(1.2)">0</text><text class="j" transform="translate(419.64 189.45) rotate(63.86) scale(1.2)">0</text><text class="j" transform="translate(422.03 194.35) rotate(65.72) scale(1.2)">0</text><text class="j" transform="translate(424.25 199.31) rotate(67.57) scale(1.2)">0</text><text class="j" transform="translate(426.3 204.32) rotate(69.42) scale(1.2)">0</text><text class="j" transform="translate(428.19 209.44) rotate(70.86) scale(1.2)"> </text><text class="j" transform="translate(429.19 212.3) rotate(72.31) scale(1.2)">0</text><text class="j" transform="translate(430.83 217.48) rotate(74.17) scale(1.2)">1</text><text class="j" transform="translate(432.29 222.69) rotate(76.02) scale(1.2)">1</text><text class="j" transform="matrix(0.25, 1.17, -1.17, 0.25, 433.59, 227.98)">0</text><text class="j" transform="matrix(0.21, 1.18, -1.18, 0.21, 434.72, 233.3)">0</text><text class="j" transform="translate(435.67 238.64) rotate(81.57) scale(1.2)">0</text><text class="j" transform="translate(436.45 244.01) rotate(83.41) scale(1.2)">0</text><text class="j" transform="translate(437.06 249.4) rotate(85.24) scale(1.2)">1</text><text class="j" transform="translate(437.48 254.85) rotate(86.67) scale(1.2)"> </text><text class="j" transform="translate(437.66 257.86) rotate(88.08) scale(1.2)">0</text><text class="j" transform="translate(437.8 263.35) rotate(89.07) scale(1.2)">1</text><text class="j" transform="translate(437.82 268.73) rotate(91.7) scale(1.2)">1</text><text class="j" transform="translate(437.64 274.17) rotate(93.52) scale(1.2)">0</text><text class="j" transform="translate(437.3 279.58) rotate(95.35) scale(1.2)">0</text><text class="j" transform="translate(436.77 285) rotate(97.19) scale(1.2)">0</text><text class="j" transform="translate(436.08 290.37) rotate(99.03) scale(1.2)">1</text><text class="j" transform="matrix(-0.23, 1.18, -1.18, -0.23, 435.21, 295.76)">1</text><text class="j" transform="translate(434.15 301.1) rotate(102.32) scale(1.2)"> </text><text class="j" transform="translate(433.51 304.06) rotate(103.77) scale(1.2)">0</text><text class="j" transform="translate(432.21 309.32) rotate(105.62) scale(1.2)">1</text><text class="j" transform="translate(430.73 314.55) rotate(107.48) scale(1.2)">1</text><text class="j" transform="matrix(-0.4, 1.13, -1.13, -0.4, 429.08, 319.74)">1</text><text class="j" transform="matrix(-0.43, 1.12, -1.12, -0.43, 427.27, 324.85)">0</text><text class="j" transform="translate(425.3 329.89) rotate(113.04) scale(1.2)">1</text><text class="j" transform="matrix(-0.51, 1.09, -1.09, -0.51, 423.15, 334.91)">0</text><text class="j" transform="translate(420.85 339.82) rotate(116.74) scale(1.2)">0</text><text class="j" transform="translate(418.37 344.68) rotate(118.18) scale(1.2)"> </text><text class="j" transform="translate(416.95 347.33) rotate(119.62) scale(1.2)">0</text><text class="j" transform="translate(414.24 352.07) rotate(121.47) scale(1.2)">1</text><text class="j" transform="translate(411.41 356.67) rotate(123.3) scale(1.2)">1</text><text class="j" transform="translate(408.41 361.21) rotate(125.14) scale(1.2)">0</text><text class="j" transform="translate(405.27 365.64) rotate(126.97) scale(1.2)">1</text><text class="j" transform="matrix(-0.75, 0.94, -0.94, -0.75, 401.99, 369.97)">0</text><text class="j" transform="translate(398.56 374.21) rotate(130.64) scale(1.2)">0</text><text class="j" transform="translate(395.02 378.32) rotate(132.47) scale(1.2)">1</text><text class="j" transform="matrix(-0.83, 0.86, -0.86, -0.83, 391.31, 382.33)"> </text><text class="j" transform="translate(389.23 384.49) rotate(135.32) scale(1.2)">0</text><text class="j" transform="translate(385.35 388.31) rotate(137.16) scale(1.2)">1</text><text class="j" transform="matrix(-0.91, 0.79, -0.79, -0.91, 381.36, 391.99)">1</text><text class="j" transform="translate(377.26 395.54) rotate(140.81) scale(1.2)">0</text><text class="j" transform="translate(373.02 398.97) rotate(142.65) scale(1.2)">1</text><text class="j" transform="translate(368.69 402.26) rotate(144.48) scale(1.2)">1</text><text class="j" transform="translate(364.27 405.39) rotate(146.32) scale(1.2)">1</text><text class="j" transform="translate(359.75 408.39) rotate(148.15) scale(1.2)">1</text><text class="j" transform="translate(355.1 411.24) rotate(149.59) scale(1.2)"> </text><text class="j" transform="matrix(-1.05, 0.58, -0.58, -1.05, 352.49, 412.78)">0</text><text class="j" transform="matrix(-1.07, 0.55, -0.55, -1.07, 347.73, 415.4)">1</text><text class="j" transform="translate(342.9 417.85) rotate(154.72) scale(1.2)">1</text><text class="j" transform="translate(337.96 420.17) rotate(156.58) scale(1.2)">0</text><text class="j" transform="translate(332.99 422.3) rotate(158.42) scale(1.2)">1</text><text class="j" transform="translate(327.91 424.29) rotate(160.29) scale(1.2)">1</text><text class="j" transform="translate(322.82 426.1) rotate(162.13) scale(1.2)">1</text><text class="j" transform="matrix(-1.15, 0.33, -0.33, -1.15, 317.65, 427.76)">0</text><path d="M195.77,253.68A112.48,112.48,0,0,0,106.17,298,165.15,165.15,0,0,0,288.84,429.86a112.67,112.67,0,0,0-93.06-176.18Z"/><polygon class="k" points="234.21 187.56 255.78 260.04 267.73 265.26 272.08 252.87 234.21 187.56"/><polygon class="l" points="234.16 187.44 234.21 187.56 267.64 264.75 234.16 187.44"/><polygon class="m" points="189.63 232.98 255.57 270 267.78 265.43 262.29 253.5 189.63 232.98"/><polygon class="n" points="189.51 232.93 189.63 232.98 267.37 265.12 189.51 232.93"/><polygon class="o" points="190.14 298.22 262.81 277.29 268.13 265.38 255.78 260.92 190.14 298.22"/><polygon class="p" points="190.03 298.27 190.15 298.22 267.63 265.46 190.03 298.27"/><polygon class="q" points="234.31 343.17 272.06 277.64 267.62 265.38 255.63 270.74 234.31 343.17"/><polygon class="r" points="234.26 343.28 234.31 343.17 267.31 265.79 234.26 343.28"/><polygon class="s" points="300.66 343.74 279.79 271.06 267.89 265.72 263.42 278.07 300.66 343.74"/><polygon class="t" points="300.71 343.86 300.66 343.74 267.97 266.23 300.71 343.86"/><polygon class="u" points="346.2 297.83 280.43 260.51 268.2 265.03 273.64 276.98 346.2 297.83"/><polygon class="v" points="346.31 297.88 346.2 297.83 268.6 265.33 346.31 297.88"/><polygon class="w" points="346.09 233.63 273.16 253.64 267.69 265.48 279.98 270.1 346.09 233.63"/><polygon class="x" points="346.2 233.59 346.09 233.63 268.19 265.41 346.2 233.59"/><polygon class="y" points="297.52 186.18 263.05 253.5 268.09 265.52 279.8 259.57 297.52 186.18"/><polygon class="z" points="297.56 186.07 297.52 186.19 268.38 265.1 297.56 186.07"/><polygon class="aa" points="347.13 344.29 285.35 265.88 268.14 265.3 268.84 282.62 347.13 344.29"/><polygon class="ab" points="347.25 344.4 347.13 344.29 268.49 265.88 347.25 344.4"/><polygon class="ac" points="188.83 344.66 267.24 282.88 267.82 265.67 250.5 266.37 188.83 344.66"/><polygon class="ad" points="188.72 344.77 188.83 344.66 267.24 266.02 188.72 344.77"/><polygon class="ae" points="188.83 186.36 250.61 264.77 267.82 265.35 267.13 248.03 188.83 186.36"/><polygon class="af" points="188.72 186.25 188.83 186.36 267.47 264.77 188.72 186.25"/><polygon class="ag" points="345.83 185.64 267.81 247.91 267.34 265.12 284.66 264.32 345.83 185.64"/><polygon class="ah" points="345.94 185.52 345.83 185.64 267.92 264.77 345.94 185.52"/><polygon class="ai" points="267.61 109.4 251.15 248.18 267.61 265.78 284.07 247.95 267.61 109.4"/><polygon class="aj" points="267.61 109.17 267.61 109.4 267.84 264.87 267.61 109.17"/><polygon class="ak" points="111.5 264.67 250.18 281.96 267.88 265.6 250.14 249.04 111.5 264.67"/><polygon class="al" points="111.27 264.67 111.5 264.67 266.97 265.37 111.27 264.67"/><polygon class="am" points="267.75 421.44 284.62 282.71 268.21 265.05 251.69 282.84 267.75 421.44"/><polygon class="an" points="267.75 421.67 267.75 421.43 267.98 265.97 267.75 421.67"/><polygon class="ao" points="423.91 265.56 285.14 249.01 267.52 265.45 285.35 281.93 423.91 265.56"/><polygon class="ap" points="424.14 265.56 423.9 265.56 268.44 265.68 424.14 265.56"/><polygon class="e" points="58.27 255.94 62.31 264.13 71.34 265.44 64.81 271.81 66.35 280.8 58.27 276.56 50.19 280.8 51.74 271.81 45.2 265.44 54.23 264.13 58.27 255.94"/><polygon class="e" points="476.8 256.43 480.83 264.61 489.87 265.92 483.33 272.29 484.87 281.29 476.8 277.04 468.72 281.29 470.26 272.29 463.73 265.92 472.76 264.61 476.8 256.43"/><circle class="aq" cx="266.97" cy="265.37" r="138.14"/><polygon class="ar" points="217.1 134.02 219.06 137.99 223.45 138.62 220.28 141.71 221.02 146.08 217.1 144.02 213.19 146.08 213.94 141.71 210.76 138.62 215.15 137.99 217.1 134.02"/><polygon class="as" points="306.27 130.99 308.24 134.96 312.62 135.59 309.45 138.68 310.19 143.05 306.27 140.99 302.36 143.05 303.11 138.68 299.94 135.59 304.32 134.96 306.27 130.99"/><polygon class="as" points="355.73 155.38 357.69 159.35 362.07 159.99 358.9 163.08 359.65 167.44 355.73 165.38 351.81 167.44 352.56 163.08 349.39 159.99 353.77 159.35 355.73 155.38"/><polygon class="as" points="388.11 198.35 390.06 202.32 394.45 202.96 391.27 206.05 392.02 210.41 388.11 208.35 384.19 210.41 384.94 206.05 381.76 202.96 386.15 202.32 388.11 198.35"/><polygon class="as" points="393.11 294.68 396.06 298.65 399.45 299.29 396.27 302.38 397.02 306.74 393.11 304.68 389.19 306.74 389.94 302.38 386.76 299.29 391.15 298.65 393.11 294.68"/><line class="at" x1="221.11" y1="148.68" x2="237.77" y2="180.02"/><line class="at" x1="304.44" y1="145.35" x2="295.77" y2="175.35"/><line class="at" x1="349.11" y1="169.35" x2="329.77" y2="192.02"/><line class="at" x1="378.44" y1="210.02" x2="346.44" y2="225.35"/><line class="at" x1="383.11" y1="300.68" x2="346.44" y2="288.68"/></svg>